<?xml version="1.0" encoding="UTF-8"?>
<svg id="Layer_1" data-name="Layer 1" xmlns="http://www.w3.org/2000/svg" viewBox="0 0 498.09 498.06">
  <defs>
    <style>
      .cls-1 {
        fill: #f2f2f2;
      }

      .cls-1, .cls-2, .cls-3, .cls-4, .cls-5, .cls-6 {
        stroke-width: 0px;
      }

      .cls-2 {
        fill: #f9fafb;
      }

      .cls-3 {
        fill: #5d5d5d;
      }

      .cls-4 {
        fill: #3b7498;
      }

      .cls-5 {
        fill: #dce6ec;
      }

      .cls-6 {
        fill: #fbfbfc;
      }
    </style>
  </defs>
  <path class="cls-1" d="M498.07,365.02c0,31.66.06,63.31-.04,94.97-.02,6.45-2.14,12.46-5.28,18.09-1.46,2.61-3.22,5.05-5.26,7.17-4.03,4.2-8.69,7.62-14.18,9.79-5.77,2.28-11.73,3.03-17.92,3.02-138.79-.05-277.58-.02-416.37-.08-6.95,0-13.44-2.03-19.48-5.63-2.73-1.63-5.24-3.54-7.46-5.7-4.04-3.94-7.14-8.61-9.22-13.96-2.13-5.49-2.83-11.12-2.82-16.96.06-30.24.03-60.48.03-90.72,50.92,0,101.83,0,152.75,0,115.08,0,230.16,0,345.24,0ZM125.34,405.63c-6.57,16.91-13.12,33.79-19.73,50.81h10.11c6.56-16.89,13.1-33.74,19.73-50.81h-10.1ZM146.74,445.57c-4.11,0-6.46,2.15-6.46,5.95,0,3.7,2.49,6,6.48,5.99,3.87-.01,6.27-2.24,6.32-5.87.05-3.8-2.31-6.06-6.34-6.06ZM168.13,457.5c3.3.03,5.52-1.48,6.25-4.26.75-2.83-.36-5.69-2.65-6.89-2.73-1.42-6.88-.91-8.6,1.09-.37.43-.72.95-.88,1.49-1.38,4.52.57,8.49,5.88,8.56ZM189.15,457.5c3.3.03,5.51-1.49,6.24-4.28.74-2.83-.37-5.69-2.67-6.88-2.74-1.41-6.89-.89-8.59,1.12-.37.44-.72.95-.88,1.49-1.37,4.57.63,8.49,5.91,8.54Z"/>
  <path class="cls-1" d="M.08,226.53c0-45.53,0-91.05,0-136.58,0-.5.02-1,.03-1.5,1.08.02,2.16.06,3.25.06,163.9,0,327.8,0,491.7,0,1,0,2-.04,3-.06,0,11.24.03,22.47.03,33.71,0,34.79,0,69.58,0,104.36-65.66,0-131.33,0-196.99,0-100.33,0-200.66,0-300.99,0ZM280.15,186.41c.39-.98.23-1.82.23-2.64.02-5.58,0-11.16.02-16.74,0-2.17.06-4.34.73-6.42.66-2.06,1.75-3.84,3.87-4.61,3.83-1.4,8.38-1.01,9.27,4.57.19,1.16.29,2.31.29,3.47,0,6.75,0,13.49.02,20.24,0,.71-.26,1.49.26,2.11h10.79c0-3.15,0-6.14,0-9.12,0-6.08.08-12.16-.06-18.24-.15-6.45-3.46-10.52-9.39-11.83-1.29-.28-2.64-.46-3.96-.45-4.65.03-8.92,1.08-12.01,4.94-.31.39-.57.84-1.51.75-2.56-4.52-7.15-5.56-12.02-5.67-5-.11-9.4,1.49-12.6,6.07-.68-2.04-1.19-3.59-1.74-5.24-2.76-.09-5.46-.19-8.19.05v38.74h10.9c0-.98,0-1.8,0-2.62.01-6,.01-11.99.05-17.99.01-2.26.41-4.48,1.38-6.54,1.45-3.11,4.39-4.43,8.16-3.75,2.53.45,4.15,2.56,4.44,5.89.1,1.16.1,2.33.1,3.49,0,6.33,0,12.66.01,18.99,0,.81-.16,1.65.21,2.56h10.77ZM185.88,186.41c.05-.5.11-.82.11-1.14,0-8.16.02-16.33-.02-24.49,0-1.4-.17-2.84-.5-4.2-.91-3.72-2.84-6.72-6.48-8.35-5.38-2.42-15.11-2.35-19.09,3.75-.13.2-.33.39-.88.23.75-6.59.47-13.25.53-19.95h-10.89v54.11h10.89c0-6.08,0-11.98,0-17.89,0-2.08.06-4.14.49-6.2,1.05-4.98,3.98-7.23,9.06-6.89,2.53.17,4.15,1.45,5.04,3.79.6,1.6.63,3.26.63,4.92.02,6.58,0,13.16.02,19.74,0,.81-.19,1.66.26,2.57h10.85ZM215,187.07c.41,0,1.24.03,2.07,0,7.85-.35,13.94-4.99,16.22-12.49,1.59-5.23,1.54-10.5-.22-15.67-2.05-6.05-6.3-9.82-12.47-11.42-4.02-1.05-8.06-.93-12.07,0-6.36,1.48-10.53,5.42-12.49,11.62-1.51,4.79-1.51,9.7-.28,14.52,1.49,5.82,5.06,10.02,10.75,12.23,2.58,1,5.29,1.41,8.49,1.21ZM351.88,169.68c.19-3.62.23-6.78-.43-9.88-1.4-6.53-5.31-10.74-11.88-12.35-2.94-.72-5.9-.8-8.9-.49-6.56.68-11.43,3.79-14.23,9.84-2.35,5.1-2.46,10.49-1.45,15.88,1.4,7.5,6.18,11.96,13.42,13.77,4.49,1.12,9.09.87,13.64.29,2.62-.34,5.18-1.01,7.42-2.34v-7.8c-1.01-.11-1.7.42-2.47.71-4.03,1.49-8.19,2.13-12.48,1.86-5.42-.35-8.49-3.62-8.71-9.48h26.07ZM132.36,135.59c-6.62,17.03-13.16,33.87-19.76,50.86h10.1c6.52-16.88,13.17-33.72,19.71-50.86h-10.05ZM375.85,135.61c-6.58,16.95-13.14,33.82-19.73,50.8h10.1c6.57-16.91,13.1-33.74,19.73-50.8h-10.09Z"/>
  <path class="cls-5" d="M.08,226.53c100.33,0,200.66,0,300.99,0,65.67,0,131.33,0,196.99,0,0,46.16,0,92.33,0,138.49-115.08,0-230.16,0-345.24,0-50.92,0-101.83,0-152.75,0,0-46.16,0-92.33,0-138.49ZM261.24,318.11c-1.24.49-2.25.84-3.21,1.29-7.39,3.42-6.26,12.56-1.2,15.66,1.79,1.1,3.66,2.04,5.71,2.39,6.38,1.1,12.76,1.07,19.05-.55,4.02-1.04,7.66-2.84,9.96-6.56,3.35-5.41,2.67-15.1-6.86-16.88-1.4-.26-2.78-.45-4.2-.46-2.83,0-5.66-.01-8.49-.01-1.43,0-2.83-.22-4.13-.79-1.36-.6-1.6-1.57-.9-2.84.66-1.18,1.64-1.44,2.93-1.36,3.84.24,7.63.03,11.28-1.44,5.14-2.07,7.86-6,7.96-11.51.04-2.12-.56-4.03-1.51-5.95,2.06-.93,4.24-.88,6.16-1.94.17-1.64.15-3.27.05-4.85-1.12-.52-2.13-.28-3.1-.29-3.91-.05-7.85.21-11.73-.16-3.56-.33-7.07-.86-10.66-.35-10.69,1.51-14.14,9.05-11.76,17.61.85,3.06,3.07,5.16,5.88,6.67-6.23,4.75-6.56,7.74-1.24,12.31ZM152.88,316.93c.66-.06.98.21,1.27.51,3,3.2,6.76,4.25,11.06,4.2,6.44-.07,10.83-3.25,13.14-8.97,2.98-7.37,2.9-14.97,0-22.39-1.57-4.04-4.34-7.15-8.7-8.31-5.87-1.55-11.22-.84-15.42,4.08-.25.3-.42.74-1.2.72.77-6.67.51-13.33.44-19.96h-10.82v54.13h8.09c1.04-1.24,1.05-3.01,2.14-4.02ZM229.62,321.52c1.08,0,2.17.11,3.24-.02,7.33-.84,12.63-4.49,15.14-11.54,1.95-5.47,1.95-11.1.06-16.61-1.83-5.36-5.45-9.01-10.85-10.88-4.54-1.57-9.13-1.54-13.73-.48-6.28,1.44-10.44,5.34-12.39,11.42-1.66,5.18-1.65,10.49-.03,15.7,1.87,5.99,5.9,9.89,11.89,11.74,2.17.67,4.4.82,6.66.66ZM328.87,289.46c3.64-2.45,6.72-5.15,9.93-7.78-.39,13.25-.11,26.26-.21,39.17h11.17v-50.84c-2.68,0-5.17.04-7.66-.02-1.06-.02-1.88.28-2.73.94-4.6,3.56-9.26,7.05-13.87,10.59-.64.49-1.44.87-1.64,1.83,1.47,2.09,3.18,4,5.03,6.11ZM189.66,266.76v54.1h10.73c.52-6.11.28-52.35-.25-54.1h-10.48ZM125.85,270.1c-6.63,17.06-13.16,33.88-19.74,50.83h10.09c1.67-4.28,3.32-8.53,4.98-12.77,1.63-4.17,3.26-8.35,4.88-12.52,1.66-4.25,3.37-8.48,4.94-12.76,1.54-4.21,3.51-8.28,4.73-12.77h-9.88ZM381.85,270.11c-6.59,16.96-13.14,33.8-19.73,50.78h10.12c6.56-16.91,13.09-33.73,19.71-50.78h-10.09ZM297.55,305.99h19.06c.18-2.84.18-5.53,0-8.35h-19.07c-.17,2.82-.18,5.52,0,8.35Z"/>
  <path class="cls-4" d="M498.05,88.46c-1,.02-2,.06-3,.06-163.9,0-327.8,0-491.7,0-1.08,0-2.16-.04-3.25-.06,0-16.75-.28-33.5.07-50.23C.5,22.94,10.2,9.08,24.83,3.04,29.97.91,35.33,0,40.89.02c27.91.03,55.82.01,83.73.01,110.72,0,221.44.02,332.16-.03,9.4,0,17.94,2.4,25.4,8.11,8.71,6.67,13.96,15.46,15.48,26.4.18,1.32.41,2.63.41,3.97-.01,16.66-.01,33.32-.02,49.99ZM236.66,60.94V27.69h-9.75c-2.95,8.31-5.28,16.66-8.48,25.27-2.74-8.84-5.3-17.07-7.84-25.25h-9.75v33.2c2.14.14,4.17.3,6.28-.1v-24.07c.11-.02.22-.04.33-.05,2.48,8.06,4.97,16.12,7.47,24.24,2.23.18,4.38.14,6.67.01,2.74-8.25,5.48-16.5,8.21-24.74l.34.06v24.69h6.52ZM319.84,27.52v33.38h6.29c-.03-8.13.09-16.13.27-24.25,4.68,8.1,9.36,16.2,13.99,24.23h9.03V27.56c-2.19.03-4.23-.28-6.36.22v24.12c-.51-.83-.73-1.16-.93-1.5-4.09-7.04-8.21-14.07-12.25-21.14-.69-1.2-1.38-1.87-2.89-1.77-2.32.14-4.65.04-7.15.04ZM169.87,27.48v33.54c2.44-.07,4.74.24,7.18-.25v-12.49c2.35-.69,3.86-.18,5.03,1.97,1.73,3.21,3.79,6.25,5.68,9.38.55.92,1.14,1.5,2.36,1.42,2.04-.12,4.09-.03,6.5-.03-3.37-5.07-6.53-9.82-9.71-14.61.52-.33.86-.56,1.21-.77,3.89-2.41,5.57-5.94,4.83-10.11-.74-4.13-3.24-6.57-7.91-7.52-5.01-1.02-10.06-.27-15.16-.54ZM364.92,42.41v-14.92c-2.6.15-4.9-.21-7.14.25v33.18c2.4.18,4.69.18,7.21,0,0-3.43.06-6.74-.03-10.05-.04-1.32.3-2.27,1.51-2.85.5-.24.83-.79,1.55-.83,2.53,4.06,5.06,8.16,7.62,12.24.42.67.68,1.59,1.73,1.59,2.36,0,4.72,0,7.46,0-4.08-6.49-7.91-12.58-11.74-18.67,3.87-4.92,7.65-9.73,11.6-14.76-.79-.04-1.2-.08-1.61-.07-2.08.03-4.37-.47-6.17.26-1.81.74-2.74,3.01-4.04,4.63-2.53,3.15-5.03,6.33-7.94,10ZM261.72,27.67h-8.91c-3.93,11.12-7.81,22.12-11.74,33.23h7.74c.84-2.69,1.65-5.27,2.42-7.73h12.1c1,2.67,1.48,5.37,2.61,7.77h7.58c-3.96-11.16-7.86-22.16-11.8-33.27ZM113.83,27.48v33.51c2.45,0,4.74.21,7.28-.17v-11.74c2.82-.13,5.39.1,7.92-.56,5.2-1.36,8.01-5.14,8.01-10.84,0-5-2.89-8.83-8.13-9.74-4.96-.86-9.94-.17-15.08-.46ZM162.51,54.96h-11.9v-8.5h11.18v-5.99h-11.19v-6.99h11.99c-.05-2.16.3-4.04-.19-5.82h-19.07v33.18h19.18v-5.89ZM277.89,27.63v33.23h20.63c-.05-2.04.29-3.92-.27-5.99h-13.35v-27.25h-7.02ZM311.32,60.92V27.51c-2.45.12-4.74-.24-6.98.24v33.17h6.98Z"/>
  <path class="cls-3" d="M125.34,405.63h10.1c-6.63,17.07-13.17,33.92-19.73,50.81h-10.11c6.61-17.02,13.16-33.9,19.73-50.81Z"/>
  <path class="cls-3" d="M146.74,445.57c4.03,0,6.39,2.26,6.34,6.06-.05,3.63-2.45,5.86-6.32,5.87-3.99.01-6.49-2.29-6.48-5.99,0-3.79,2.35-5.95,6.46-5.95Z"/>
  <path class="cls-3" d="M168.13,457.5c-5.3-.07-7.25-4.04-5.88-8.56.16-.54.51-1.06.88-1.49,1.72-2,5.86-2.51,8.6-1.09,2.29,1.19,3.4,4.06,2.65,6.89-.74,2.78-2.95,4.29-6.25,4.26Z"/>
  <path class="cls-3" d="M189.15,457.5c-5.28-.06-7.27-3.98-5.91-8.54.16-.54.51-1.06.88-1.49,1.71-2.01,5.85-2.53,8.59-1.12,2.3,1.19,3.41,4.05,2.67,6.88-.73,2.79-2.94,4.3-6.24,4.28Z"/>
  <path class="cls-3" d="M280.15,186.41h-10.77c-.36-.91-.21-1.75-.21-2.56-.01-6.33,0-12.66-.01-18.99,0-1.17,0-2.34-.1-3.49-.29-3.32-1.9-5.43-4.44-5.89-3.77-.67-6.71.65-8.16,3.75-.96,2.06-1.36,4.27-1.38,6.54-.04,6-.03,11.99-.05,17.99,0,.82,0,1.64,0,2.62h-10.9v-38.74c2.73-.24,5.43-.14,8.19-.05.55,1.65,1.06,3.2,1.74,5.24,3.2-4.59,7.6-6.18,12.6-6.07,4.87.11,9.46,1.15,12.02,5.67.94.09,1.2-.36,1.51-.75,3.09-3.86,7.36-4.91,12.01-4.94,1.32,0,2.67.17,3.96.45,5.93,1.3,9.24,5.38,9.39,11.83.14,6.08.05,12.16.06,18.24,0,2.99,0,5.98,0,9.12h-10.79c-.52-.62-.26-1.4-.26-2.11-.02-6.75-.01-13.49-.02-20.24,0-1.16-.1-2.31-.29-3.47-.89-5.58-5.44-5.97-9.27-4.57-2.12.78-3.21,2.56-3.87,4.61-.67,2.09-.72,4.26-.73,6.42-.01,5.58,0,11.16-.02,16.74,0,.82.16,1.66-.23,2.64Z"/>
  <path class="cls-3" d="M185.88,186.41h-10.85c-.45-.91-.26-1.76-.26-2.57-.02-6.58,0-13.16-.02-19.74,0-1.66-.03-3.32-.63-4.92-.88-2.35-2.5-3.62-5.04-3.79-5.08-.35-8.01,1.91-9.06,6.89-.43,2.06-.49,4.12-.49,6.2,0,5.9,0,11.81,0,17.89h-10.89v-54.11h10.89c-.06,6.69.22,13.36-.53,19.95.55.16.75-.03.88-.23,3.98-6.09,13.72-6.17,19.09-3.75,3.64,1.64,5.57,4.63,6.48,8.35.33,1.36.49,2.8.5,4.2.05,8.16.03,16.33.02,24.49,0,.32-.06.64-.11,1.14Z"/>
  <path class="cls-3" d="M215,187.07c-3.2.2-5.91-.21-8.49-1.21-5.69-2.21-9.25-6.41-10.75-12.23-1.24-4.82-1.23-9.72.28-14.52,1.96-6.21,6.13-10.14,12.49-11.62,4.01-.93,8.05-1.05,12.07,0,6.17,1.61,10.42,5.38,12.47,11.42,1.76,5.17,1.81,10.45.22,15.67-2.29,7.5-8.37,12.13-16.22,12.49-.83.04-1.66,0-2.07,0ZM223.03,166.99c.1-2.35-.24-4.65-1.03-6.85-1.11-3.11-3.36-4.59-6.89-4.7-4.03-.12-6.39,1.08-7.63,4.29-1.87,4.83-1.84,9.76.05,14.57,1.26,3.22,3.59,4.41,7.63,4.3,3.49-.1,5.73-1.6,6.85-4.76.78-2.21,1.11-4.5,1.03-6.85Z"/>
  <path class="cls-3" d="M351.88,169.68h-26.07c.22,5.86,3.29,9.13,8.71,9.48,4.29.28,8.45-.36,12.48-1.86.76-.28,1.46-.82,2.47-.71v7.8c-2.24,1.33-4.79,2-7.42,2.34-4.55.59-9.15.83-13.64-.29-7.25-1.8-12.03-6.27-13.42-13.77-1-5.39-.9-10.78,1.45-15.88,2.79-6.05,7.67-9.16,14.23-9.84,3-.31,5.96-.23,8.9.49,6.57,1.61,10.48,5.83,11.88,12.35.66,3.09.62,6.26.43,9.88ZM326.21,162.36h15.23c-.05-4.78-2.97-8.26-8.5-7.97-3.83.2-7.19,3.88-6.73,7.97Z"/>
  <path class="cls-3" d="M132.36,135.59h10.05c-6.54,17.14-13.19,33.98-19.71,50.86h-10.1c6.6-16.99,13.14-33.83,19.76-50.86Z"/>
  <path class="cls-3" d="M375.85,135.61h10.09c-6.62,17.06-13.16,33.89-19.73,50.8h-10.1c6.6-16.98,13.15-33.85,19.73-50.8Z"/>
  <path class="cls-3" d="M261.24,318.11c-5.32-4.57-4.99-7.56,1.24-12.31-2.81-1.51-5.03-3.61-5.88-6.67-2.38-8.56,1.07-16.1,11.76-17.61,3.58-.51,7.1.02,10.66.35,3.88.36,7.82.1,11.73.16.97.01,1.98-.22,3.1.29.09,1.59.12,3.22-.05,4.85-1.92,1.06-4.1,1.01-6.16,1.94.94,1.92,1.55,3.84,1.51,5.95-.1,5.51-2.82,9.44-7.96,11.51-3.65,1.47-7.44,1.68-11.28,1.44-1.3-.08-2.28.18-2.93,1.36-.7,1.27-.46,2.24.9,2.84,1.3.57,2.7.79,4.13.79,2.83,0,5.66.01,8.49.01,1.42,0,2.8.19,4.2.46,9.54,1.78,10.21,11.47,6.86,16.88-2.3,3.71-5.94,5.52-9.96,6.56-6.29,1.63-12.67,1.66-19.05.55-2.05-.35-3.92-1.29-5.71-2.39-5.06-3.11-6.19-12.24,1.2-15.66.96-.45,1.97-.79,3.21-1.29ZM273.3,321.55c-1.5,0-2.99-.02-4.49,0-1.71.03-3.28.53-4.62,1.59-2.62,2.08-2.33,5.37.61,6.93,1.03.55,2.13.89,3.32.98,2.41.17,4.83.21,7.23-.09,2.39-.29,4.76-.81,6.64-2.51,1.19-1.07,1.92-2.4,1.41-3.99-.46-1.46-1.64-2.14-3.15-2.49-2.31-.54-4.63-.39-6.94-.43ZM278.51,294.68c0-.58.09-1.18-.02-1.74-.78-3.97-2.56-5.23-6.32-5.26-3.35-.03-5.41,2.22-5.61,5.71-.06.99-.07,2,.03,2.98.31,3.02,2.25,4.98,5.06,5.19,3.71.28,5.67-.97,6.66-4.17.28-.9.21-1.8.21-2.71Z"/>
  <path class="cls-3" d="M152.88,316.93c-1.09,1.01-1.1,2.78-2.14,4.02h-8.09v-54.13h10.82c.07,6.64.34,13.3-.44,19.96.78.02.95-.42,1.2-.72,4.2-4.92,9.55-5.63,15.42-4.08,4.37,1.15,7.13,4.27,8.7,8.31,2.89,7.42,2.97,15.02,0,22.39-2.31,5.72-6.7,8.9-13.14,8.97-4.29.05-8.05-1-11.06-4.2-.29-.31-.6-.57-1.27-.51ZM153.56,300.99c-.06,2.58.04,5.13.97,7.6,1.06,2.79,3.1,4.18,6.01,4.44,3.04.28,5.49-.78,6.8-3.55,2.41-5.13,2.48-10.45.29-15.66-1.36-3.22-3.81-4.26-7.82-3.85-2.89.29-4.87,2.08-5.69,5.11-.53,1.94-.62,3.93-.56,5.92Z"/>
  <path class="cls-3" d="M229.62,321.52c-2.26.15-4.49,0-6.66-.66-6-1.85-10.02-5.76-11.89-11.74-1.63-5.21-1.63-10.52.03-15.7,1.94-6.08,6.11-9.98,12.39-11.42,4.6-1.06,9.19-1.1,13.73.48,5.4,1.87,9.02,5.53,10.85,10.88,1.88,5.52,1.88,11.14-.06,16.61-2.51,7.05-7.81,10.7-15.14,11.54-1.07.12-2.16.02-3.24.02ZM238.03,301.4c.11-1.48-.09-3.05-.45-4.59-.17-.72-.31-1.46-.57-2.16-1.14-3.11-3.36-4.61-6.88-4.71-4.09-.12-6.38,1.05-7.64,4.26-1.9,4.83-1.85,9.75.03,14.56,1.26,3.24,3.56,4.42,7.61,4.32,3.46-.08,5.77-1.63,6.87-4.73.78-2.2,1.13-4.5,1.03-6.95Z"/>
  <path class="cls-3" d="M328.87,289.46c-1.84-2.12-3.56-4.02-5.03-6.11.2-.96,1.01-1.34,1.64-1.83,4.62-3.54,9.27-7.03,13.87-10.59.84-.65,1.67-.96,2.73-.94,2.49.05,4.98.02,7.66.02v50.84h-11.17c.1-12.91-.17-25.92.21-39.17-3.2,2.64-6.29,5.33-9.93,7.78Z"/>
  <path class="cls-3" d="M189.66,266.76h10.48c.53,1.75.77,48,.25,54.1h-10.73v-54.1Z"/>
  <path class="cls-3" d="M125.85,270.1h9.88c-1.23,4.49-3.19,8.56-4.73,12.77-1.57,4.28-3.29,8.51-4.94,12.76-1.63,4.17-3.26,8.35-4.88,12.52-1.65,4.24-3.31,8.49-4.98,12.77h-10.09c6.58-16.95,13.12-33.77,19.74-50.83Z"/>
  <path class="cls-3" d="M381.85,270.11h10.09c-6.62,17.05-13.15,33.87-19.71,50.78h-10.12c6.6-16.98,13.14-33.82,19.73-50.78Z"/>
  <path class="cls-3" d="M297.55,305.99c-.19-2.83-.18-5.52,0-8.35h19.07c.17,2.82.18,5.51,0,8.35h-19.06Z"/>
  <path class="cls-6" d="M236.66,60.94h-6.52v-24.69l-.34-.06c-2.74,8.24-5.47,16.49-8.21,24.74-2.29.13-4.44.16-6.67-.01-2.5-8.12-4.99-16.18-7.47-24.24-.11.02-.22.04-.33.05v24.07c-2.12.39-4.14.24-6.28.1V27.71h9.75c2.54,8.19,5.1,16.42,7.84,25.25,3.2-8.61,5.53-16.96,8.48-25.27h9.75v33.25Z"/>
  <path class="cls-6" d="M319.84,27.52c2.5,0,4.83.11,7.15-.04,1.5-.09,2.2.57,2.89,1.77,4.04,7.07,8.16,14.1,12.25,21.14.2.34.42.67.93,1.5v-24.12c2.13-.5,4.17-.19,6.36-.22v33.32h-9.03c-4.64-8.03-9.31-16.13-13.99-24.23-.18,8.12-.3,16.12-.27,24.25h-6.29V27.52Z"/>
  <path class="cls-2" d="M169.87,27.48c5.09.27,10.15-.49,15.16.54,4.67.95,7.17,3.39,7.91,7.52.74,4.17-.94,7.7-4.83,10.11-.35.21-.69.44-1.21.77,3.18,4.79,6.34,9.54,9.71,14.61-2.4,0-4.46-.09-6.5.03-1.22.07-1.81-.5-2.36-1.42-1.89-3.13-3.95-6.17-5.68-9.38-1.16-2.15-2.68-2.66-5.03-1.97v12.49c-2.44.48-4.74.17-7.18.25V27.48ZM177.13,33.67v8.64c2.73.32,4.11.23,5.74-.33,2.02-.7,2.94-2.15,2.81-4.42-.12-2.05-1.01-3.07-3.13-3.59-1.77-.43-3.55-.62-5.43-.3Z"/>
  <path class="cls-2" d="M364.92,42.41c2.91-3.67,5.41-6.85,7.94-10,1.3-1.62,2.23-3.89,4.04-4.63,1.79-.73,4.09-.23,6.17-.26.41,0,.81.04,1.61.07-3.95,5.02-7.73,9.83-11.6,14.76,3.83,6.09,7.66,12.18,11.74,18.67-2.73,0-5.1,0-7.46,0-1.04,0-1.31-.92-1.73-1.59-2.56-4.08-5.09-8.18-7.62-12.24-.72.04-1.05.59-1.55.83-1.2.58-1.54,1.53-1.51,2.85.09,3.31.03,6.62.03,10.05-2.52.19-4.8.19-7.21,0V27.74c2.24-.46,4.54-.1,7.14-.25v14.92Z"/>
  <path class="cls-6" d="M261.72,27.67c3.94,11.11,7.84,22.11,11.8,33.27h-7.58c-1.13-2.39-1.61-5.09-2.61-7.77h-12.1c-.77,2.47-1.58,5.05-2.42,7.73h-7.74c3.93-11.11,7.81-22.11,11.74-33.23h8.91ZM257.29,33.17c-1.48,4.81-2.84,9.22-4.27,13.87,2.95-.11,5.7.17,8.58-.2-1.44-4.56-2.8-8.89-4.31-13.66Z"/>
  <path class="cls-2" d="M113.83,27.48c5.14.29,10.12-.4,15.08.46,5.25.91,8.13,4.74,8.13,9.74,0,5.7-2.81,9.48-8.01,10.84-2.53.66-5.1.43-7.92.56v11.74c-2.54.38-4.83.17-7.28.17V27.48ZM121.17,33.55v9.31c2,.41,3.8.13,5.54-.38,2.06-.6,3.01-2.18,2.96-4.6-.05-2.29-.82-3.27-2.98-3.98-1.79-.59-3.58-.3-5.52-.35Z"/>
  <path class="cls-6" d="M162.51,54.96v5.89h-19.18V27.67h19.07c.49,1.78.14,3.66.19,5.82h-11.99v6.99h11.19v5.99h-11.18v8.5h11.9Z"/>
  <path class="cls-2" d="M277.89,27.63h7.02v27.25h13.35c.56,2.07.22,3.95.27,5.99h-20.63V27.63Z"/>
  <path class="cls-2" d="M311.32,60.92h-6.98V27.75c2.23-.48,4.53-.12,6.98-.24v33.41Z"/>
  <path class="cls-1" d="M223.03,166.98c.09,2.35-.24,4.65-1.03,6.85-1.12,3.15-3.35,4.66-6.85,4.76-4.04.11-6.37-1.07-7.63-4.3-1.89-4.82-1.93-9.74-.05-14.57,1.25-3.21,3.6-4.42,7.63-4.29,3.54.11,5.78,1.59,6.89,4.7.79,2.2,1.13,4.5,1.03,6.85Z"/>
  <path class="cls-1" d="M326.21,162.36c-.46-4.09,2.9-7.78,6.73-7.97,5.53-.28,8.45,3.19,8.5,7.97h-15.23Z"/>
  <path class="cls-5" d="M273.3,321.55c2.32.03,4.64-.11,6.94.43,1.51.35,2.69,1.03,3.15,2.49.5,1.6-.23,2.92-1.41,3.99-1.88,1.7-4.26,2.21-6.64,2.51-2.39.3-4.81.26-7.23.09-1.18-.09-2.28-.43-3.32-.98-2.94-1.56-3.24-4.85-.61-6.93,1.34-1.06,2.92-1.56,4.62-1.59,1.5-.03,2.99,0,4.49,0Z"/>
  <path class="cls-5" d="M278.51,294.68c0,.91.07,1.81-.21,2.71-.99,3.19-2.96,4.44-6.66,4.17-2.8-.21-4.74-2.17-5.06-5.19-.1-.98-.09-1.99-.03-2.98.21-3.49,2.27-5.74,5.61-5.71,3.76.03,5.54,1.3,6.32,5.26.11.56.02,1.16.02,1.74Z"/>
  <path class="cls-5" d="M153.56,301c-.06-2,.03-3.98.56-5.92.83-3.03,2.81-4.82,5.69-5.11,4.01-.41,6.47.63,7.82,3.85,2.2,5.21,2.12,10.53-.29,15.66-1.3,2.78-3.76,3.83-6.8,3.55-2.91-.27-4.96-1.65-6.01-4.44-.93-2.46-1.04-5.01-.98-7.59Z"/>
  <path class="cls-5" d="M238.03,301.4c.1,2.45-.25,4.75-1.03,6.95-1.1,3.1-3.41,4.65-6.87,4.73-4.05.1-6.35-1.08-7.61-4.32-1.88-4.82-1.93-9.74-.03-14.56,1.26-3.21,3.56-4.38,7.64-4.26,3.52.1,5.74,1.61,6.88,4.71.25.7.4,1.43.57,2.16.36,1.54.56,3.1.45,4.59Z"/>
  <path class="cls-4" d="M177.13,33.67c1.88-.32,3.66-.14,5.43.3,2.11.52,3.01,1.54,3.13,3.59.13,2.27-.79,3.72-2.81,4.42-1.63.56-3.01.65-5.74.33v-8.64Z"/>
  <path class="cls-4" d="M257.29,33.17c1.5,4.77,2.87,9.11,4.31,13.66-2.87.37-5.63.09-8.58.2,1.43-4.65,2.79-9.05,4.27-13.87Z"/>
  <path class="cls-4" d="M121.17,33.55c1.94.06,3.73-.24,5.52.35,2.15.71,2.93,1.69,2.98,3.98.05,2.42-.9,4.01-2.96,4.6-1.74.5-3.54.79-5.54.38v-9.31Z"/>
</svg>